<?xml version="1.0" encoding="UTF-8"?>
<svg version="1.1" xmlns="http://www.w3.org/2000/svg" width="463" height="538">
<path d="M0 0 C4.30897576 2.53149236 9.04342768 4.22956526 13.70214844 6 C14.76820313 6.40863281 15.83425781 6.81726563 16.93261719 7.23828125 C32.70267513 12.89169825 49.92442595 16.76394979 66.70214844 17 C67.87874023 17.02054443 67.87874023 17.02054443 69.07910156 17.04150391 C75.28943017 17.13803149 81.49219592 17.10561144 87.70214844 17 C88.96800781 16.98324219 90.23386719 16.96648437 91.53808594 16.94921875 C112.111681 16.14014479 134.06490364 10.77162398 152.28417969 1.10546875 C168.69528563 -7.58333643 181.86570921 -10.18725714 199.94970703 -4.87890625 C214.58651578 -0.09650368 228.72298632 7.2631431 240.70214844 17 C240.70214844 17.66 240.70214844 18.32 240.70214844 19 C241.27964844 19.268125 241.85714844 19.53625 242.45214844 19.8125 C244.75764886 21.02929189 246.72271036 22.30333879 248.70214844 24 C248.70214844 24.66 248.70214844 25.32 248.70214844 26 C249.36214844 26 250.02214844 26 250.70214844 26 C250.70214844 26.66 250.70214844 27.32 250.70214844 28 C251.36214844 28 252.02214844 28 252.70214844 28 C255.9101764 31.49033442 258.7760992 35.2718865 261.70214844 39 C262.26804687 39.71285156 262.83394531 40.42570312 263.41699219 41.16015625 C284.76109864 68.73198607 292.36071824 107.84030606 293.13964844 142.0625 C293.17421143 142.93156982 293.20877441 143.80063965 293.24438477 144.69604492 C293.29241054 152.11423473 290.97837449 156.51230139 285.95092773 161.86425781 C281.00957948 166.50474095 275.56843794 169.47939963 269.45214844 172.3125 C268.4619873 172.77688477 267.47182617 173.24126953 266.45166016 173.71972656 C243.16595623 184.37473301 210.88995317 198.8123954 184.70214844 198 C184.37214844 198.66 184.04214844 199.32 183.70214844 200 C181.62231445 200.34594727 181.62231445 200.34594727 178.89355469 200.50390625 C171.72194306 201.0326087 164.71675321 202.2407628 157.63378906 203.45117188 C142.06107048 206.03842708 126.45948913 207.36725546 110.70214844 208.125 C109.85265625 208.16669312 109.00316406 208.20838623 108.12792969 208.25134277 C73.35910437 209.93553895 38.17980657 209.36084488 3.66992188 204.42089844 C0.54035478 203.97705394 -2.59282374 203.56984179 -5.72753906 203.1640625 C-40.70182951 198.48576008 -78.93044033 190.76255184 -110.31347656 174.04296875 C-112.51044946 172.84855777 -112.51044946 172.84855777 -115.79785156 171.5625 C-124.69596396 167.59012839 -134.2758974 162.355438 -138.29785156 153 C-138.72167901 149.7216476 -138.63035966 146.42805133 -138.61035156 143.125 C-138.60471191 142.14756836 -138.59907227 141.17013672 -138.59326172 140.16308594 C-138.05144207 106.69901671 -128.72966293 74.0219261 -112.29785156 45 C-111.63785156 45 -110.97785156 45 -110.29785156 45 C-110.03875 44.27039063 -109.77964844 43.54078125 -109.51269531 42.7890625 C-108.259733 39.91248664 -106.81389726 37.820083 -104.86035156 35.375 C-104.26351562 34.61960937 -103.66667969 33.86421875 -103.05175781 33.0859375 C-101.53114173 31.27745422 -100.07623702 29.55546806 -98.29785156 28 C-97.63785156 28 -96.97785156 28 -96.29785156 28 C-96.29785156 27.34 -96.29785156 26.68 -96.29785156 26 C-95.63785156 26 -94.97785156 26 -94.29785156 26 C-94.29785156 25.34 -94.29785156 24.68 -94.29785156 24 C-90.82954339 20.76649026 -87.03198431 17.91890176 -83.29785156 15 C-82.44578125 14.31035156 -81.59371094 13.62070312 -80.71582031 12.91015625 C-70.80018491 5.21830391 -59.10468614 0.11278464 -47.29785156 -4 C-46.14240845 -4.41016357 -46.14240845 -4.41016357 -44.96362305 -4.82861328 C-29.22502561 -10.02659655 -14.006389 -8.55818641 0 0 Z M-60.29785156 45 C-60.89855469 45.43699219 -61.49925781 45.87398438 -62.11816406 46.32421875 C-82.34881245 61.99120924 -92.77950103 91.64218859 -96.29785156 116 C-96.47960937 117.20011719 -96.66136719 118.40023437 -96.84863281 119.63671875 C-98.00988588 128.24157324 -98.00988588 128.24157324 -95.61035156 136.375 C-69.33887806 166.19667262 2.84021657 167.87555381 40.20214844 170.3125 C99.3679306 173.61758805 197.82132935 177.83720986 247.38964844 139.375 C251.04718004 135.61861619 251.98103853 132.90938495 251.95214844 127.6875 C251.36678509 102.11636451 241.90692296 79.00003153 227.70214844 58 C227.04214844 57.01 226.38214844 56.02 225.70214844 55 C225.04214844 55 224.38214844 55 223.70214844 55 C223.70214844 54.34 223.70214844 53.68 223.70214844 53 C223.04214844 53 222.38214844 53 221.70214844 53 C221.47527344 52.4225 221.24839844 51.845 221.01464844 51.25 C219.35366622 48.40260191 217.38690283 46.87932807 214.70214844 45 C214.04214844 45 213.38214844 45 212.70214844 45 C212.70214844 44.34 212.70214844 43.68 212.70214844 43 C211.71214844 43 210.72214844 43 209.70214844 43 C209.70214844 42.34 209.70214844 41.68 209.70214844 41 C195.8432025 33.61530618 180.19178897 26.77823076 164.15136719 31.13671875 C160.25609159 32.50969468 156.4493852 34.10003796 152.63427734 35.67919922 C116.08225996 50.56672975 73.07428875 52.43992564 34.76220703 44.42089844 C32.57616216 43.97425926 30.38481536 43.56761697 28.19042969 43.1640625 C15.80080006 40.81417217 2.92386528 37.69025355 -8.38208008 31.93994141 C-24.31607323 24.12219276 -47.82893455 35.17129851 -60.29785156 45 Z " fill="#060606" transform="translate(154.2978515625,294)"/>
<path d="M0 0 C1.11246094 0.69738281 2.22492188 1.39476563 3.37109375 2.11328125 C4.23863281 2.73589844 5.10617187 3.35851562 6 4 C6 4.66 6 5.32 6 6 C6.556875 6.226875 7.11375 6.45375 7.6875 6.6875 C10.63296499 8.3592504 12.64324185 10.58281215 15 13 C15.99 13.66 16.98 14.32 18 15 C18 15.66 18 16.32 18 17 C18.66 17 19.32 17 20 17 C21.80167326 19.02309102 23.47283883 21.04661637 25.125 23.1875 C25.86314941 24.14100342 25.86314941 24.14100342 26.61621094 25.11376953 C47.09503237 51.96807311 56.2922877 84.6235983 51.8125 118.1875 C49.83585409 131.7995404 46.30429833 144.7142138 40 157 C39.57203125 157.86496094 39.1440625 158.72992188 38.703125 159.62109375 C35.78561094 165.26763079 32.40455895 170.4992202 28.75 175.6875 C28.31341064 176.31245361 27.87682129 176.93740723 27.42700195 177.58129883 C26.3377505 179.09387734 25.17468608 180.55276985 24 182 C23.34 182 22.68 182 22 182 C21.34 183.65 20.68 185.3 20 187 C19.34 187 18.68 187 18 187 C18 187.66 18 188.32 18 189 C16.3203125 190.7265625 16.3203125 190.7265625 14.125 192.625 C13.40570313 193.25664062 12.68640625 193.88828125 11.9453125 194.5390625 C10 196 10 196 8 196 C8 196.66 8 197.32 8 198 C6.5390625 199.2890625 6.5390625 199.2890625 4.625 200.625 C3.99851562 201.07101563 3.37203125 201.51703125 2.7265625 201.9765625 C1 203 1 203 -1 203 C-1 203.66 -1 204.32 -1 205 C-13.69224061 214.11052877 -30.65156238 221.16896196 -46 224 C-47.423125 224.28037109 -47.423125 224.28037109 -48.875 224.56640625 C-65.88392574 227.48981536 -83.21631306 226.87179233 -100 223 C-100.6391333 222.85691406 -101.2782666 222.71382812 -101.93676758 222.56640625 C-107.0645291 221.36566121 -111.91380666 219.67296009 -116.8125 217.75 C-117.59713623 217.44352539 -118.38177246 217.13705078 -119.19018555 216.82128906 C-125.40500162 214.34227012 -131.26128658 211.4491749 -137 208 C-137.92167969 207.48953125 -138.84335938 206.9790625 -139.79296875 206.453125 C-140.52128906 205.97359375 -141.24960938 205.4940625 -142 205 C-142 204.34 -142 203.68 -142 203 C-142.7425 202.731875 -143.485 202.46375 -144.25 202.1875 C-146.89061949 201.04723249 -148.85552844 199.90619694 -151 198 C-151 197.34 -151 196.68 -151 196 C-151.721875 195.773125 -152.44375 195.54625 -153.1875 195.3125 C-156.56432417 193.73664872 -158.55767039 191.79123384 -161 189 C-161 188.34 -161 187.68 -161 187 C-161.66 187 -162.32 187 -163 187 C-163.4021875 185.7934375 -163.4021875 185.7934375 -163.8125 184.5625 C-164.204375 183.716875 -164.59625 182.87125 -165 182 C-165.99 181.67 -166.98 181.34 -168 181 C-187.77431693 158.02174312 -197.90581353 125.00900038 -196 95 C-193.72896197 69.18640458 -185.44727711 46.76246924 -170 26 C-169.32195312 25.07445312 -168.64390625 24.14890625 -167.9453125 23.1953125 C-164.5065612 18.61506699 -164.5065612 18.61506699 -163 17 C-162.34 17 -161.68 17 -161 17 C-160.67 16.01 -160.34 15.02 -160 14 C-158.2578125 12.2109375 -158.2578125 12.2109375 -156.125 10.375 C-155.42632812 9.76398437 -154.72765625 9.15296875 -154.0078125 8.5234375 C-152 7 -152 7 -149 6 C-149 5.34 -149 4.68 -149 4 C-146.82505832 2.33376317 -144.6633318 0.80962805 -142.375 -0.6875 C-141.35273315 -1.35797363 -141.35273315 -1.35797363 -140.30981445 -2.04199219 C-96.56214036 -30.23887363 -43.08622935 -28.12492764 0 0 Z M-120.9375 27.75 C-121.54706543 28.13881348 -122.15663086 28.52762695 -122.78466797 28.92822266 C-124.23185987 29.89175554 -125.62272636 30.93892632 -127 32 C-127 32.66 -127 33.32 -127 34 C-127.56460938 34.24363281 -128.12921875 34.48726562 -128.7109375 34.73828125 C-142.51610128 42.34761214 -151.22335291 59.70986411 -156 74 C-156.33 74.73992187 -156.66 75.47984375 -157 76.2421875 C-160.02797575 84.59277688 -160.357444 93.00540267 -160.3125 101.8125 C-160.30686035 102.96596924 -160.3012207 104.11943848 -160.29541016 105.30786133 C-160.18099919 113.31153138 -159.68659557 120.40481252 -157 128 C-156.57460937 129.2375 -156.14921875 130.475 -155.7109375 131.75 C-153.18246114 138.72257004 -150.13965448 144.92045275 -145.61328125 150.8515625 C-144 153 -144 153 -142.41796875 155.7734375 C-141.95003906 156.50820312 -141.48210937 157.24296875 -141 158 C-140.34 158 -139.68 158 -139 158 C-139 158.66 -139 159.32 -139 160 C-138.34 160 -137.68 160 -137 160 C-136.731875 160.598125 -136.46375 161.19625 -136.1875 161.8125 C-135.00082594 163.99847854 -133.90400887 165.41332594 -132 167 C-131.34 167 -130.68 167 -130 167 C-130 167.66 -130 168.32 -130 169 C-127.50409569 171.21717388 -124.725239 173.0751465 -122 175 C-121.41863281 175.4228125 -120.83726562 175.845625 -120.23828125 176.28125 C-117.57874012 178.15699689 -116.33258644 179 -113 179 C-113 179.66 -113 180.32 -113 181 C-110.57531089 181.97881917 -108.14865389 182.95215021 -105.71875 183.91796875 C-104.1111253 184.5577849 -102.50588025 185.20373221 -100.90625 185.86328125 C-91.4299073 189.64993458 -82.01390725 190.38932353 -71.875 190.375 C-70.09355591 190.37258301 -70.09355591 190.37258301 -68.27612305 190.37011719 C-55.79599706 190.19672308 -45.00316663 188.13638139 -34 182 C-32.67597329 181.63143228 -31.34360388 181.28916692 -30 181 C-30 180.34 -30 179.68 -30 179 C-29.44441406 178.89429688 -28.88882813 178.78859375 -28.31640625 178.6796875 C-25.54901558 177.86767068 -23.40233717 176.61951665 -20.9375 175.125 C-20.08027344 174.61195313 -19.22304688 174.09890625 -18.33984375 173.5703125 C-16.26189214 172.17576067 -14.59856582 170.91827899 -13 169 C-13 168.34 -13 167.68 -13 167 C-12.401875 166.731875 -11.80375 166.46375 -11.1875 166.1875 C-9.00152146 165.00082594 -7.58667406 163.90400887 -6 162 C-6 161.34 -6 160.68 -6 160 C-5.34 160 -4.68 160 -4 160 C-4 159.34 -4 158.68 -4 158 C-3.34 158 -2.68 158 -2 158 C11.02620258 142.5785511 17.41914544 122.67441517 17.3125 102.75 C17.30404053 101.09411865 17.30404053 101.09411865 17.29541016 99.40478516 C17.04131078 82.30465188 12.48691564 65.75419588 2 52 C1.46632813 51.26523438 0.93265625 50.53046875 0.3828125 49.7734375 C-3.87847551 44.05899137 -8.59007979 38.66068482 -14 34 C-14.66 34 -15.32 34 -16 34 C-16 33.34 -16 32.68 -16 32 C-18.54115229 29.96596269 -21.40408742 28.36882115 -24.1875 26.6875 C-25.00669922 26.1912915 -25.82589844 25.69508301 -26.66992188 25.18383789 C-41.12042126 16.6183298 -54.63981219 13.64418947 -71.375 13.6875 C-72.6125 13.67138672 -73.85 13.65527344 -75.125 13.63867188 C-91.70113734 13.62994759 -107.03097649 18.8776737 -120.9375 27.75 Z " fill="#070707" transform="translate(303,43)"/>
<path d="M0 0 C0 3 0 3 -1.5 4.8125 C-3.59083596 6.64198147 -5.67902266 8.20723066 -7.9375 9.8125 C-11.94701546 12.73937162 -14.25992238 15.88988356 -17 20 C-17.66 20.33 -18.32 20.66 -19 21 C-19.2475 21.5775 -19.495 22.155 -19.75 22.75 C-21.55906281 26.00631306 -24.07434092 27.71035376 -27 30 C-25.53461846 26.78348751 -23.70270269 24.1955451 -21.5 21.4375 C-19.55613602 18.99531495 -17.73348485 16.60022728 -16 14 C-15.34 14 -14.68 14 -14 14 C-13.67 13.01 -13.34 12.02 -13 11 C-11.2578125 9.2109375 -11.2578125 9.2109375 -9.125 7.375 C-8.42632812 6.76398437 -7.72765625 6.15296875 -7.0078125 5.5234375 C-5 4 -5 4 -2 3 C-2 2.34 -2 1.68 -2 1 C-1.34 0.67 -0.68 0.34 0 0 Z " fill="#595959" transform="translate(156,46)"/>
<path d="M0 0 C0 3 0 3 -1.29760742 4.53051758 C-1.89420166 5.06314209 -2.4907959 5.5957666 -3.10546875 6.14453125 C-3.75966797 6.73943359 -4.41386719 7.33433594 -5.08789062 7.94726562 C-5.78076172 8.56279297 -6.47363281 9.17832031 -7.1875 9.8125 C-12.82638776 14.83867216 -12.82638776 14.83867216 -17.86328125 20.44921875 C-18.92095703 21.71185547 -18.92095703 21.71185547 -20 23 C-20.66 23 -21.32 23 -22 23 C-20.32598022 19.04322598 -17.86850715 16.15535787 -15 13 C-14.34 13 -13.68 13 -13 13 C-13 12.34 -13 11.68 -13 11 C-12.34 11 -11.68 11 -11 11 C-11 10.34 -11 9.68 -11 9 C-9.21895282 7.39821407 -7.37462722 5.86618074 -5.5 4.375 C-4.4790625 3.55773437 -3.458125 2.74046875 -2.40625 1.8984375 C-1.6121875 1.27195312 -0.818125 0.64546875 0 0 Z " fill="#595959" transform="translate(71,309)"/>
<path d="M0 0 C1.32 0.33 2.64 0.66 4 1 C3.34 1 2.68 1 2 1 C1.79375 1.556875 1.5875 2.11375 1.375 2.6875 C-0.55000774 5.92501302 -3.03850902 7.68231141 -6 10 C-4.34832443 6.4213696 -2.21713508 3.25179812 0 0 Z " fill="#464646" transform="translate(135,66)"/>
<path d="" fill="#FFFFFF" transform="translate(0,0)"/>
<path d="" fill="#FFFFFF" transform="translate(0,0)"/>
<path d="" fill="#FFFFFF" transform="translate(0,0)"/>
<path d="" fill="#FFFFFF" transform="translate(0,0)"/>
<path d="" fill="#FFFFFF" transform="translate(0,0)"/>
<path d="" fill="#FFFFFF" transform="translate(0,0)"/>
<path d="" fill="#FFFFFF" transform="translate(0,0)"/>
<path d="" fill="#FFFFFF" transform="translate(0,0)"/>
<path d="" fill="#FFFFFF" transform="translate(0,0)"/>
<path d="" fill="#FFFFFF" transform="translate(0,0)"/>
<path d="" fill="#FFFFFF" transform="translate(0,0)"/>
<path d="" fill="#FFFFFF" transform="translate(0,0)"/>
<path d="" fill="#FFFFFF" transform="translate(0,0)"/>
<path d="" fill="#FFFFFF" transform="translate(0,0)"/>
<path d="" fill="#FFFFFF" transform="translate(0,0)"/>
<path d="" fill="#FFFFFF" transform="translate(0,0)"/>
<path d="" fill="#FFFFFF" transform="translate(0,0)"/>
<path d="" fill="#FFFFFF" transform="translate(0,0)"/>
<path d="" fill="#FFFFFF" transform="translate(0,0)"/>
<path d="" fill="#FFFFFF" transform="translate(0,0)"/>
<path d="" fill="#FFFFFF" transform="translate(0,0)"/>
<path d="" fill="#FFFFFF" transform="translate(0,0)"/>
<path d="" fill="#FFFFFF" transform="translate(0,0)"/>
<path d="" fill="#FFFFFF" transform="translate(0,0)"/>
<path d="" fill="#FFFFFF" transform="translate(0,0)"/>
<path d="" fill="#FFFFFF" transform="translate(0,0)"/>
<path d="" fill="#FFFFFF" transform="translate(0,0)"/>
<path d="" fill="#FFFFFF" transform="translate(0,0)"/>
<path d="" fill="#FFFFFF" transform="translate(0,0)"/>
<path d="" fill="#FFFFFF" transform="translate(0,0)"/>
<path d="" fill="#FFFFFF" transform="translate(0,0)"/>
<path d="" fill="#FFFFFF" transform="translate(0,0)"/>
<path d="" fill="#FFFFFF" transform="translate(0,0)"/>
<path d="" fill="#FFFFFF" transform="translate(0,0)"/>
<path d="" fill="#FFFFFF" transform="translate(0,0)"/>
<path d="" fill="#FFFFFF" transform="translate(0,0)"/>
<path d="" fill="#FFFFFF" transform="translate(0,0)"/>
<path d="" fill="#FFFFFF" transform="translate(0,0)"/>
<path d="" fill="#FFFFFF" transform="translate(0,0)"/>
<path d="" fill="#FFFFFF" transform="translate(0,0)"/>
<path d="" fill="#FFFFFF" transform="translate(0,0)"/>
<path d="" fill="#FFFFFF" transform="translate(0,0)"/>
<path d="" fill="#FFFFFF" transform="translate(0,0)"/>
<path d="" fill="#FFFFFF" transform="translate(0,0)"/>
<path d="" fill="#FFFFFF" transform="translate(0,0)"/>
<path d="" fill="#FFFFFF" transform="translate(0,0)"/>
<path d="" fill="#FFFFFF" transform="translate(0,0)"/>
<path d="" fill="#FFFFFF" transform="translate(0,0)"/>
<path d="" fill="#FFFFFF" transform="translate(0,0)"/>
<path d="" fill="#FFFFFF" transform="translate(0,0)"/>
<path d="" fill="#FFFFFF" transform="translate(0,0)"/>
<path d="" fill="#FFFFFF" transform="translate(0,0)"/>
<path d="" fill="#FFFFFF" transform="translate(0,0)"/>
<path d="" fill="#FFFFFF" transform="translate(0,0)"/>
<path d="" fill="#FFFFFF" transform="translate(0,0)"/>
<path d="" fill="#FFFFFF" transform="translate(0,0)"/>
<path d="" fill="#FFFFFF" transform="translate(0,0)"/>
<path d="" fill="#FFFFFF" transform="translate(0,0)"/>
<path d="" fill="#FFFFFF" transform="translate(0,0)"/>
<path d="" fill="#FFFFFF" transform="translate(0,0)"/>
</svg>
